<svg xmlns="http://www.w3.org/2000/svg" viewBox="0 0 479.7 61.9">
		<path d="M96.2 28l-9-2.6c-.6-.2-1.1-.4-1.4-.7-.3-.3-.5-.7-.5-1.2 0-.8.7-1.4 2.1-1.8 1.4-.4 3.7-.5 6.9-.5 1 0 2.2 0 3.6.1s3.1.2 5 .3l.9-7.8c-1.7-.2-3.3-.4-4.9-.5-1.5-.1-3-.2-4.4-.2-6.1 0-10.7.9-13.7 2.6-3 1.7-4.5 4.4-4.5 8 0 2.2.6 4 1.7 5.3 1.1 1.3 2.8 2.3 5 3l10.5 3.1c.7.2 1.2.5 1.5.8.3.3.5.7.5 1.2 0 .9-.6 1.5-1.8 1.9-1.2.4-3.2.6-5.9.6-1 0-2.4-.1-4.2-.3-1.8-.2-4-.4-6.6-.8l-1 8.1c1.5.3 3.2.5 5.1.7 1.9.2 4.2.2 6.7.2 5.7 0 10-.9 12.8-2.6 2.8-1.7 4.2-4.3 4.2-7.9 0-2.4-.7-4.3-2.1-5.7-1.6-1.4-3.7-2.5-6.5-3.3zM53.2 39.7h-.8l-8.2-25.9h-9l11.1 33.1h4.5c-.3.7-.6 1.3-1 1.8-1 1.6-2.2 2.8-3.6 3.6-1.4.8-3.1 1.3-5 1.6l-5.7.6.3 7.3 6.2-.6c3.1-.3 5.8-1.1 8-2.3 2.2-1.2 4.2-3 5.8-5.4 1.6-2.4 3.1-5.6 4.3-9.6l9.3-30.2h-9l-7.2 26zM138.2 39.3c-1.1.1-2.1.2-3.1.2-3 0-5.1-.6-6.4-1.7-1.3-1.1-2-3-2-5.5V21.6h14.7v-7.8h-14.7v-10h-8.4v10h-7.9v7.8h7.9v11.5c0 5 1.3 8.7 3.8 11 2.5 2.3 6.7 3.4 12.4 3.4 1.5 0 2.9-.1 4.2-.2 1.3-.1 2.6-.3 4-.6l-.8-7.9c-1.4.2-2.6.4-3.7.5zM11.7 10.9c1-.8 2.4-1.2 4.3-1.2 1.4 0 2.8.4 4.2 1.1 1.5.7 2.9 1.8 4.3 3.2l5.7-6.5c-1.9-1.8-4.1-3.2-6.5-4.2-2.4-1-5-1.4-7.8-1.4-4.7 0-8.3 1-10.9 3.2-2.6 2.1-3.8 5.1-3.8 9 0 2.7.9 5.3 2.6 7.5 1.7 2.3 4.2 4.2 7.3 5.7l6.4 3.1c1.2.5 2.1 1.2 2.7 2 .6.8 1 1.7 1 2.6 0 1.5-.6 2.6-1.8 3.4-1.2.8-2.9 1.2-5.1 1.2-1.9 0-4-.3-6.3-.8s-4.5-1.3-6.8-2.2L0 45.1c1.9.8 4 1.4 6.4 1.8s4.8.6 7.3.6c5.2 0 9.3-1.1 12.1-3.2 2.8-2.1 4.3-5.2 4.3-9.1 0-2.5-.8-4.8-2.5-7s-4.1-4.1-7.2-5.7l-6-3.1c-1.3-.7-2.4-1.5-3.1-2.4s-1.1-1.8-1.1-2.8c-.1-1.4.4-2.5 1.5-3.3zM217 15c-1-1.2-2.7-1.8-4.9-1.8-1.6 0-2.9.4-3.8 1.3-1 .8-1.5 2-1.7 3.5h-.8c-.2-1.2-.6-2.2-1.2-3-.9-1.2-2.2-1.8-3.8-1.8-2.9 0-4.6 1.6-5 4.7h-.8l-.4-4.1H187v33.1h8.3V24.7c0-2.5.8-3.7 2.4-3.7 1.3 0 2 .9 2 2.8v23.1h6.3V24.7c0-2.5.8-3.7 2.3-3.7 1.3 0 2 1.1 2 3.4v22.4h8.3V20.9c-.1-2.7-.6-4.7-1.6-5.9zM165.4 13.1c-4.8 0-8.6 1.5-11.2 4.5-2.7 3-4 7.2-4 12.6 0 5.6 1.6 9.8 4.7 12.8s7.6 4.5 13.3 4.5c1.4 0 2.9-.1 4.7-.2 1.8-.1 3.7-.3 5.8-.7l-.8-8c-1.5.3-3 .5-4.5.6-1.5.2-2.9.2-4.4.2-3.3 0-5.9-.8-7.7-2.4-1-.9-1.7-2-2.2-3.4h21c.1-1.4.2-2.8.2-4.3 0-5.3-1.3-9.3-3.9-12.1-2.6-2.7-6.2-4.1-11-4.1zm-6.7 14.7c.2-1.9.8-3.4 1.7-4.5 1.2-1.6 2.9-2.4 5.1-2.4 2 0 3.6.6 4.8 1.8 1.1 1.2 1.7 2.9 1.7 5.1h-13.3z" fill="#808080"/>
	<g opacity=".67">
		<path d="M240.2 47.5c-1.6 0-2.9-.6-4-1.7s-1.7-2.5-1.7-4c0-1.6.6-2.9 1.7-4s2.4-1.7 4-1.7 2.9.6 4 1.7 1.7 2.4 1.7 4-.6 2.9-1.7 4c-1 1.1-2.4 1.7-4 1.7z" fill="#808080"/>
		<path d="M282.7 47.5c-14.1 0-21.2-7.6-21.2-22.9 0-7.2 1.8-12.8 5.3-16.8s8.6-6 15.1-6c2.9 0 5.5.5 7.8 1.4 2.3.9 4 2.3 5.2 4l-4.6 6c-.9-1.2-2.1-2.1-3.6-2.7-1.4-.6-3-1-4.7-1-3.6 0-6.5 1.3-8.6 3.8-2.2 2.5-3.2 6.1-3.2 10.8 0 10.2 4.5 15.3 13.6 15.3 3 0 6-.6 8.9-1.9l1.4 7.6c-3.6 1.7-7.4 2.4-11.4 2.4z" fill="#804040"/>
		<path d="M315.2 47.5c-4.8 0-8.5-1.5-11.1-4.5-2.6-3-3.9-7.2-3.9-12.7 0-5.5 1.3-9.7 3.9-12.7 2.6-3 6.3-4.5 11.1-4.5s8.5 1.5 11.1 4.5c2.6 3 3.9 7.2 3.9 12.7 0 5.5-1.3 9.7-3.9 12.7-2.6 3-6.3 4.5-11.1 4.5zm.1-8c1.9 0 3.4-.8 4.5-2.4 1.1-1.6 1.6-3.8 1.6-6.8 0-2.9-.5-5.2-1.6-6.8-1.1-1.6-2.5-2.4-4.5-2.4-1.9 0-3.4.8-4.5 2.4-1.1 1.6-1.6 3.8-1.6 6.8 0 2.9.5 5.2 1.6 6.8 1 1.6 2.5 2.4 4.5 2.4z" fill="#808040"/>
		<path d="M366.8 37.5c-2.8.8-5.1 1.2-6.9 1.2-1.6 0-2.9-.2-3.7-.6-.8-.4-1.4-1.1-1.7-1.9-.3-.9-.4-2-.4-3.4V0h-17.9v7.8h9.4v25.3c0 5 .9 8.7 2.8 11 1.8 2.3 4.8 3.4 9 3.4 1.9 0 3.6-.1 5.3-.3 1.6-.2 3.4-.5 5.1-1l-1-8.7z" fill="#408040"/>
		<path d="M390.2 47.5c-4.8 0-8.5-1.5-11.1-4.5-2.6-3-3.9-7.2-3.9-12.7 0-5.5 1.3-9.7 3.9-12.7 2.6-3 6.3-4.5 11.1-4.5s8.5 1.5 11.1 4.5c2.6 3 3.9 7.2 3.9 12.7 0 5.5-1.3 9.7-3.9 12.7-2.6 3-6.3 4.5-11.1 4.5zm.1-8c1.9 0 3.4-.8 4.5-2.4 1.1-1.6 1.6-3.8 1.6-6.8 0-2.9-.5-5.2-1.6-6.8-1.1-1.6-2.5-2.4-4.5-2.4-1.9 0-3.4.8-4.5 2.4-1.1 1.6-1.6 3.8-1.6 6.8 0 2.9.5 5.2 1.6 6.8 1 1.6 2.5 2.4 4.5 2.4z" fill="#408080"/>
		<path d="M443 16.6c-1.7-2.3-4.1-3.5-7.2-3.5-5.3 0-8.1 2.7-8.5 8.1h-1.2l-1-7.5h-12.9V21h5.8v18.6h-7v7.2h23.2v-7.2h-7.8v-7c0-3.7.5-6.5 1.5-8.5s2.6-3 4.6-3c1.6 0 2.8.4 3.5 1.3.7.9 1.1 2.3 1.1 4.2h8.4c0-4.4-.8-7.7-2.5-10z" fill="#404080"/>
		<path d="M462.7 47.5c-2.5 0-4.8-.1-6.7-.2-1.9-.2-3.7-.4-5.1-.7l1-8.1c2.6.3 4.8.6 6.6.7 1.8.2 3.2.2 4.2.2 2.7 0 4.7-.2 5.9-.6 1.2-.4 1.8-1 1.8-1.9 0-.5-.2-.9-.5-1.2-.3-.3-.8-.5-1.5-.7L458 32c-2.2-.7-3.9-1.7-5-3s-1.7-3.1-1.7-5.3c0-3.6 1.5-6.2 4.5-8 3-1.7 7.6-2.6 13.7-2.6 1.4 0 2.9.1 4.4.2 1.5.1 3.2.3 4.9.5l-.9 7.8c-1.9-.2-3.6-.3-5-.3-1.4-.1-2.6-.1-3.6-.1-3.1 0-5.4.2-6.9.5-1.4.4-2.1 1-2.1 1.8 0 .5.2.9.5 1.2.3.3.8.5 1.4.7l9 2.6c2.9.8 5 1.9 6.4 3.4 1.4 1.4 2.1 3.3 2.1 5.7 0 3.5-1.4 6.1-4.2 7.9-2.8 1.6-7.1 2.5-12.8 2.5z" fill="#804080"/>
	</g>
</svg>